# xmcd CD database file
#
# Track frame offsets:
#	150
#	23448
#	28928
#	36605
#	54715
#	68240
#	81603
#	102520
#	112285
#
# Disc length: 2078 seconds
#
# Revision: 0
# Processed by: cddbd v1.5.1PL2 Copyright (c) Steve Scherf et al.
# Submitted via: CDex 1.51
#
DISCID=86081c09
DTITLE=Rise From The Dead - Rock Fan Dead
DYEAR=1900
DGENRE=Rock
TTITLE0=健康症
TTITLE1=Born Die
TTITLE2=Psycho Smash
TTITLE3=真空の赤月
TTITLE4=様々な観念
TTITLE5=本質
TTITLE6=伝える者へ抑圧
TTITLE7=Deep One
TTITLE8=Give A Strainde Meaning
EXTD=
EXTT0=
EXTT1=
EXTT2=
EXTT3=
EXTT4=
EXTT5=
EXTT6=
EXTT7=
EXTT8=
PLAYORDER=
